<?xml version="1.0" encoding="UTF-8"?>
<svg id="Capa_1" xmlns="http://www.w3.org/2000/svg" version="1.1" viewBox="0 0 18 18">
  <!-- Generator: Adobe Illustrator 29.0.0, SVG Export Plug-In . SVG Version: 2.1.0 Build 186)  -->
  <defs>
    <style>
      .st0 {
        fill: #2561eb;
      }
    </style>
  </defs>
  <g id="Capa_11" data-name="Capa_1">
    <path class="st0" d="M17.2,10.8v6.1h-3.5v-5.7c0-1.4-.5-2.4-1.8-2.4s-1.6.7-1.8,1.3c0,.2-.1.5-.1.9v5.9h-3.5V6.3h3.5v1.5h0c.5-.8,1.3-1.8,3.2-1.8s4.1,1.5,4.1,4.8h0ZM2.8,1.2c-1.2,0-2,.8-2,1.8s.8,1.8,1.9,1.8h0c1.2,0,2-.8,2-1.8s-.8-1.8-2-1.8h.1ZM1,16.9h3.5V6.3H1s0,10.6,0,10.6Z"/>
  </g>
</svg>