<?xml version="1.0" encoding="UTF-8"?>
<svg id="Capa_1" xmlns="http://www.w3.org/2000/svg" version="1.1" viewBox="0 0 18 18">
  <!-- Generator: Adobe Illustrator 29.0.0, SVG Export Plug-In . SVG Version: 2.1.0 Build 186)  -->
  <defs>
    <style>
      .st0 {
        fill: #2561eb;
        fill-rule: evenodd;
        stroke: #2561eb;
        stroke-linecap: round;
        stroke-linejoin: round;
        stroke-width: .5px;
      }
    </style>
  </defs>
  <g id="Capa_11" data-name="Capa_1">
    <path class="st0" d="M3.1,3.9c-.5,0-.8.4-.8.8v8.4c0,.5.4.8.8.8h11.8c.5,0,.8-.4.8-.8V4.8c0-.5-.4-.8-.8-.8H3.1ZM1.1,4.8c0-1.1.9-2,2-2h11.8c1.1,0,2,.9,2,2v8.4c0,1.1-.9,2-2,2H3.1c-1.1,0-2-.9-2-2,0,0,0-8.4,0-8.4Z"/>
    <path class="st0" d="M2.2,4.1c.2-.2.5-.3.8,0l6,4.8,5.8-4.7c.2-.2.6,0,.8,0,.2.2.1.6,0,.8l-6.2,5c-.2.2-.5.2-.7,0L2.3,4.9c-.2-.2-.3-.5,0-.8h0Z"/>
  </g>
</svg>