<?xml version="1.0" encoding="UTF-8"?>
<svg id="Capa_1" xmlns="http://www.w3.org/2000/svg" version="1.1" viewBox="0 0 18 18">
  <!-- Generator: Adobe Illustrator 29.0.0, SVG Export Plug-In . SVG Version: 2.1.0 Build 186)  -->
  <defs>
    <style>
      .st0 {
        fill: #2561eb;
      }
    </style>
  </defs>
  <g id="Capa_11" data-name="Capa_1">
    <path class="st0" d="M17.6,3.8c-.6.3-1.3.5-2,.5.7-.4,1.3-1.1,1.5-1.9-.7.4-1.4.7-2.2.8-.3-.3-.7-.6-1.2-.8-.4-.2-.9-.3-1.4-.3-1.9,0-3.5,1.6-3.5,3.5s0,.5,0,.8c-1.4,0-2.8-.4-4-1-1.2-.6-2.4-1.5-3.2-2.6-.3.5-.5,1.1-.5,1.7s.1,1.1.4,1.6.7.9,1.1,1.2c-.6,0-1.1-.2-1.6-.4h0c0,1.7,1.2,3.1,2.8,3.4-.3,0-.6.1-.9.1h-.7c.2.7.7,1.3,1.3,1.7s1.3.7,2,.7c-1.3,1-2.8,1.5-4.4,1.5H.3c1.6,1,3.5,1.6,5.4,1.6,6.5,0,10-5.3,10-9.9v-.4c.7-.5,1.3-1.1,1.7-1.8h.2Z"/>
  </g>
</svg>