<svg width="2500" height="226" viewBox="0 0 2500 226" fill="White" xmlns="http://www.w3.org/2000/svg">
<g clip-path="url(#clip0_220_741)">
<path d="M1419.46 227C1418.35 226.327 1417.83 225.307 1417.04 225.034C1398.96 218.764 1382.22 210.193 1368.8 196.232C1355.47 182.372 1347.15 165.767 1344.14 146.827C1342.66 137.467 1342.15 127.873 1342.09 118.38C1341.87 79.5665 1342 40.7516 1342 1.46866C1397.02 1 1452.04 1 1507.53 1C1508 45.2698 1508.44 89.5459 1507.8 133.806C1507.52 153.681 1500.77 172 1488.53 187.956C1474.19 206.631 1454.97 218.011 1432.84 225.01C1431.97 225.282 1431.22 225.89 1430.71 226.671C1427.31 227 1423.62 227 1419.46 227ZM1424.5 8C1399.41 8 1374.33 8 1349 8C1349 10.1921 1349 11.8334 1349 13.4747C1349 46.4591 1348.75 79.4467 1349.14 112.426C1349.28 124.173 1350.45 135.981 1352.13 147.617C1354.51 164.04 1362.4 178.026 1373.63 190.098C1387.02 204.486 1404.08 212.744 1422.44 218.671C1424.15 219.223 1426.36 218.844 1428.18 218.324C1446.34 213.125 1462.39 204.452 1475.85 190.814C1492.62 173.818 1500.28 152.978 1500.77 129.915C1501.61 90.9512 1501 51.9565 1501 12.9749C1501 11.3802 1501 9.78549 1501 8C1475.44 8 1450.47 8 1424.5 8Z" />
<path d="M1260.62 1C1261 76.0209 1261 151.042 1261 226.531C1260.25 227 1259.5 227 1258.38 227C1258 151.979 1258 76.9582 1258 1.46866C1258.75 1 1259.5 1 1260.62 1Z" />
<path d="M250.828 165.47C239.922 185.831 222.32 196.784 201.26 202.942C190.793 206.003 179.926 206.803 169.113 205.911C150.028 204.336 132.694 197.918 117.945 185.391C113.559 181.665 109.082 177.915 105.413 173.535C103.678 171.465 102.779 167.726 103.214 165.018C103.99 160.188 105.953 155.527 107.633 150.873C109.047 146.955 110.76 147.082 113.086 150.493C121.593 162.967 132.313 173.049 146.081 179.528C153.996 183.252 162.327 185.229 171.138 186.175C185.327 187.699 198.35 184.681 210.9 178.549C215.537 176.284 216.119 174.251 213.862 169.554C212.44 166.597 211.013 163.642 209.174 159.827C215.125 161.162 219.894 162.348 224.712 163.286C232.211 164.747 239.738 164.883 247.266 163.335C248.839 163.012 251.071 161.707 250.828 165.47Z" />
<path d="M86.9761 87.9389C90.107 75.3012 96.0303 64.347 103.967 54.8288C112.249 44.8972 121.708 35.7813 133.933 30.6904C142.181 27.2561 150.8 24.6532 159.382 22.1116C163.36 20.9333 167.203 22.4353 170.001 25.5493C173.572 29.5234 176.887 33.7283 180.975 38.6286C178.703 39.239 177.304 39.8594 175.867 39.9639C159.051 41.1869 143.893 46.4082 130.406 56.9222C115.894 68.2355 107.845 83.272 103.261 100.549C102.351 103.98 102.39 107.663 102.001 111.231C101.472 116.076 104.589 117.607 108.512 117.94C111.915 118.229 115.362 118 119.233 118.58C108.806 128.37 100.665 139.474 96.1214 152.979C84.2844 145.575 79.0772 109.05 86.9761 87.9389Z" />
<path d="M190.292 35.7473C187.512 31.7365 184.983 28.0118 181.639 23.0855C187.284 23.0855 192.397 22.2887 197.17 23.2257C216.192 26.96 232.353 36.1769 245.151 50.7527C257.775 65.1316 265.375 81.8493 268.121 100.963C270.364 116.57 267.875 131.392 262.977 146.046C262.539 147.358 261.747 149.265 260.735 149.556C253.711 151.57 246.585 153.229 239.492 155.003C239.231 154.461 238.971 153.919 238.711 153.377C240.148 149.841 241.626 146.321 243.017 142.766C253.367 116.315 250.876 91.3082 233.719 68.4553C229.02 62.1965 223.047 56.7231 216.979 51.7129C211.311 47.0335 208.428 48.2075 204.673 54.7199C203.377 56.968 201.638 58.9605 200.421 60.6306C197.031 52.1892 193.787 44.1113 190.292 35.7473Z" />
<path d="M399.019 86.7057C398.328 75.9728 397.654 65.7107 396.944 54.9052C388.971 72.5004 381.254 89.5295 373.41 106.839C370.665 106.839 367.526 106.839 364.177 106.839C356.189 89.1096 348.184 71.3422 340.519 54.3283C338.838 76.6219 337.098 99.7157 335.352 122.871C331.887 122.871 329.254 122.871 326.004 122.871C326.349 115.837 326.549 108.827 327.081 101.841C327.514 96.1553 328.535 90.5136 328.959 84.8271C329.766 74.003 330.31 63.1594 331.013 52.3272C331.268 48.4046 331.459 44.4571 332.099 40.5903C332.367 38.9714 333.864 36.1752 334.564 36.2468C337.65 36.5622 341.688 33.8569 343.732 38.2901C346.753 44.842 349.668 51.4436 352.553 58.0571C357.869 70.2465 363.13 82.4599 368.681 95.2791C371.882 88.3481 375.026 81.7968 377.95 75.1485C383.304 62.9768 388.472 50.723 393.896 38.5831C394.409 37.4335 396.098 36.3459 397.399 36.1135C399.651 35.7113 402.026 36.0019 404.945 36.0019C405.967 50.5964 406.873 65.1216 408.032 79.6265C409.176 93.9492 410.576 108.252 411.883 122.784C408.724 122.784 405.621 122.784 402.17 122.784C401.446 112.823 400.751 102.875 399.975 92.9334C399.824 91.0018 399.357 89.0948 399.019 86.7057Z" />
<path d="M694.999 71.1085C697.126 56.1478 704.49 44.7309 717.091 37.6288C732.849 28.7467 753.361 30.0283 767.569 43.0653C779.48 53.9948 784.225 67.8071 782.898 83.5349C781.238 103.219 768.046 121.059 747.39 125.855C730.809 129.704 710.653 120.555 701.867 105.838C696.902 97.5219 695.021 88.5834 694.088 79.2809C693.835 76.7608 694.666 74.132 694.999 71.1085ZM769.066 96.4557C774.591 84.0535 774.887 71.7252 768.181 59.6703C757.027 39.6194 731.567 34.5954 715.01 51.6474C703.381 63.6246 700.57 80.876 708.535 96.9768C715.065 110.176 725.529 117.728 740.755 116.949C754.141 116.264 762.518 108.032 769.066 96.4557Z" />
<path d="M864.997 124.999C848.393 124.444 839.927 113.746 838.228 99.3752C837.267 91.2475 837.389 82.9247 840.829 74.7549C847.913 57.9273 870.146 53.7652 882.97 65.5289C883.54 66.0523 883.87 66.8387 884.658 68.0231C884.658 57.2948 884.658 46.9939 884.658 36.3477C888.165 36.3477 891.24 36.3477 894.999 36.3477C894.999 50.4963 894.999 64.9173 894.999 79.3382C894.999 93.6618 894.999 107.985 894.999 122.654C892.163 122.654 889.427 122.654 886.313 122.654C886.313 120.167 886.313 117.419 886.313 113.487C880.706 121.279 873.895 124.761 864.997 124.999ZM849.942 79.5245C845.33 88.2716 846.294 97.0533 850.293 105.58C853.779 113.016 859.798 116.785 868.23 115.99C875.868 115.27 881.001 110.676 883.346 103.946C886.406 95.1643 886.373 86.0614 882.059 77.4243C878.984 71.2689 871.85 65.2937 862.195 67.9211C856.171 69.5603 852.476 73.3275 849.942 79.5245Z" />
<path d="M971.304 75.7572C980.194 92.6018 972.756 115.823 957.492 122.824C937.827 131.843 915.194 122.997 909.955 100.086C906.118 83.3105 913.922 66.4784 930.279 59.9539C944.225 54.3912 964.663 59.7487 971.304 75.7572ZM952.083 69.0199C949.291 68.3471 946.533 67.3759 943.701 67.0528C931.144 65.6203 918.188 77.6516 918.759 92.5946C919.232 104.995 929.47 120.017 946.73 117.053C956.457 115.382 967.638 100.48 965.977 90.8942C964.429 81.9546 960.882 74.2592 952.083 69.0199Z" />
<path d="M1102.87 113.016C1105.13 111.702 1107 110.426 1109.49 108.726C1110.93 110.789 1112.44 112.967 1114.25 115.56C1104.48 124.018 1093.62 126.891 1081.34 123.689C1067.84 120.168 1060.06 110.807 1058.2 97.4776C1056.2 83.1628 1059.96 69.9417 1073.35 62.4882C1088.15 54.2493 1111.05 58.3099 1113.99 80.5462C1114.52 84.5388 1114.92 88.5492 1115.43 92.9866C1099.19 92.9866 1083.77 92.9866 1067.99 92.9866C1067.94 101.577 1071.15 108.213 1078.07 112.437C1085.89 117.216 1094.22 117.857 1102.87 113.016ZM1094.48 85.0018C1097.93 85.0018 1101.39 85.0018 1104.82 85.0018C1105.25 75.8165 1099.43 67.956 1091.44 67.0627C1081.18 65.9142 1071.67 70.0198 1068.1 85.0018C1076.63 85.0018 1085.06 85.0018 1094.48 85.0018Z" />
<path d="M449.174 124.364C441.836 125.715 435.435 124.296 429.61 120.108C419.152 112.588 421.121 93.5011 433.392 89.0807C439.814 86.767 446.62 85.3947 453.351 84.1119C456.691 83.4754 460.252 84.0013 463.663 84.0013C464.778 71.0943 455.278 64.358 442.114 68.4255C439.553 69.2168 436.946 70.303 434.794 71.8541C432.371 73.5995 430.966 73.5076 429.986 70.6904C429.208 68.4546 425.778 66.4029 430.13 63.9203C439.715 58.4538 449.832 57.7225 460.245 60.1739C466.741 61.703 472.906 70.0857 472.964 76.9983C473.084 91.3085 473.001 105.62 473.001 119.932C473.001 120.747 473.001 121.563 473.001 122.69C470.43 122.69 468.034 122.69 465.282 122.69C465.282 119.782 465.282 116.692 465.282 112.218C461.106 119.03 456.55 123.399 449.174 124.364ZM463.978 98.0468C463.978 96.1236 463.978 94.2004 463.978 92.011C454.801 92.0926 445.96 91.1582 438.134 96.3751C432.966 99.8203 431.419 104.149 433.655 109.111C436.012 114.341 441.119 117.219 447.351 116.267C457.354 114.738 461.291 107.543 463.978 98.0468Z" />
<path d="M661 107.996C661 113.14 661 117.784 661 122.713C658.051 122.713 655.312 122.713 652 122.713C652 110.708 652.056 98.6073 651.956 86.5076C651.934 83.7735 651.647 80.9765 651.003 78.3244C648.723 68.9251 643.033 66.052 633.773 68.6257C621.702 71.9806 616.519 81.928 616.082 92.8613C615.69 102.667 616 112.5 616 122.661C613.149 122.661 610.408 122.661 607.33 122.661C607.33 102.168 607.33 81.4266 607.33 60.3421C609.845 60.3421 612.584 60.3421 615.69 60.3421C615.69 63.8382 615.69 67.5911 615.69 72.4486C620.679 66.0036 625.712 60.914 632.928 59.6761C644.377 57.712 654.986 58.4763 659.059 69.6344C660.088 72.4514 660.842 75.5287 660.913 78.5056C661.144 88.1646 661 97.8326 661 107.996Z" />
<path d="M990 86.9983C990 77.8607 990 69.2232 990 60.2928C992.932 60.2928 995.667 60.2928 998.745 60.2928C998.745 63.5923 998.745 67.0197 998.745 71.58C1003.64 65.507 1008.5 61.273 1015.49 59.818C1022.75 58.3038 1029.79 58.2113 1036.18 62.113C1041.98 65.6506 1043.62 72.0903 1043.83 78.1479C1044.35 92.9168 1044 107.716 1044 122.75C1040.98 122.75 1038.24 122.75 1035 122.75C1035 110.632 1035.09 98.5325 1034.94 86.4355C1034.9 83.043 1034.5 79.5733 1033.66 76.2887C1031.83 69.0215 1023.64 65.9698 1015.81 68.566C1004.39 72.3579 998.703 83.1393 998.951 93.5629C999.18 103.189 999 112.825 999 122.726C996.023 122.726 993.286 122.726 990 122.726C990 111.02 990 99.2589 990 86.9983Z" />
<path d="M1147.72 87.7759C1150.39 84.4529 1152.76 81.359 1155.2 78.3221C1157.49 75.4657 1159.87 72.6694 1162.76 69.1703C1150.07 69.1703 1138.34 69.1703 1126.31 69.1703C1126.31 66.0999 1126.31 63.3606 1126.31 60.3047C1142.55 60.3047 1158.95 60.3047 1175.53 60.3047C1178.39 67.9459 1172.16 72.0596 1168.44 76.9559C1160.09 87.9425 1151.43 98.6939 1142.84 109.498C1141.45 111.246 1139.78 112.772 1137.67 115.006C1151.53 115.006 1164.58 115.006 1177.81 115.006C1177.81 117.795 1177.81 120.198 1177.81 122.8C1160.21 122.8 1142.79 122.8 1125.43 122.8C1123.53 117.437 1126.96 114.22 1129.78 110.674C1135.74 103.179 1141.58 95.5841 1147.72 87.7759Z" />
<path d="M553.528 122.822C543.88 119.141 540.663 113.479 540.134 103.342C539.547 92.0859 540 80.776 540 69.1086C537.306 69.1086 534.896 69.1086 532.248 69.1086C532.248 66.3263 532.248 63.9179 532.248 61.1269C534.667 61.1269 537.08 61.1269 539.877 61.1269C539.877 55.0216 539.877 49.2715 539.877 43.2656C542.987 43.2656 545.723 43.2656 548.852 43.2656C548.852 48.9614 548.852 54.7077 548.852 60.8413C554.293 60.8413 559.371 60.8413 564.72 60.8413C564.72 63.6248 564.72 66.0276 564.72 68.8269C559.738 68.8269 554.656 68.8269 549.019 68.8269C549.019 80.1157 548.248 91.1011 549.242 101.924C550.182 112.167 554.274 114.728 565.701 115.128C565.701 117.855 565.701 120.606 565.701 124.237C561.825 123.823 557.87 123.4 553.528 122.822Z" />
<path d="M489 118.855C489 99.0996 489 79.8283 489 60.2781C491.959 60.2781 494.694 60.2781 497.762 60.2781C497.762 64.2764 497.762 68.3658 497.762 73.5652C503.501 64.5886 509.511 57.8221 520.763 60.4023C520.763 63.0315 520.763 65.7752 520.763 68.874C514.541 68.4854 509.023 70.5267 505.315 75.3726C501.273 80.655 498.806 86.7439 498.95 93.7243C499.148 103.331 499 112.946 499 124.162C495.819 120.337 489.804 127.665 489 118.855Z" />
<path d="M807.998 66.7383C807.998 68.6189 807.998 70.0504 807.998 72.6991C813.154 62.5825 820.35 58.3879 830.807 60.3811C830.807 63.1446 830.807 65.8903 830.807 68.6306C813.947 69.0736 808.813 81.2449 808.098 93.9618C807.576 103.251 807.974 112.592 807.955 121.91C807.955 122.061 807.871 122.212 807.733 122.681C805.111 122.681 802.375 122.681 799.312 122.681C799.312 102.026 799.312 81.1835 799.312 60.1691C802.052 60.1691 804.672 60.1691 807.998 60.1691C807.998 62.1268 807.998 64.208 807.998 66.7383Z" />
<path d="M579 114.947C579 96.4827 579 78.5099 579 60.2695C581.985 60.2695 584.724 60.2695 587.735 60.2695C587.735 80.9813 587.735 101.725 587.735 122.735C585.009 122.735 582.27 122.735 579 122.735C579 120.323 579 117.881 579 114.947Z" />
<path d="M1144.24 157.076C1146.47 157.802 1148.29 158.463 1150.99 159.445C1150.99 167.946 1151.53 177.755 1150.65 187.437C1150.4 190.15 1146.35 193.113 1143.38 194.776C1141.35 195.912 1138.15 195.197 1135.52 194.935C1132.66 194.652 1131.05 193.227 1132.48 190.068C1144.87 192.794 1147.25 190.146 1147.76 180.99C1144.15 185.014 1139.88 184.818 1135.65 183.106C1131.08 181.258 1130.02 177.187 1130 172.699C1130 171.867 1130.05 171.031 1129.99 170.202C1129.4 161.65 1132.47 155.72 1144.24 157.076ZM1144.94 162.411C1139.8 159.464 1135.44 160.533 1134.24 165.819C1133.49 169.123 1133.95 173.072 1135.11 176.288C1135.72 178.011 1138.9 179.605 1141.03 179.753C1142.85 179.879 1145.9 178.276 1146.51 176.706C1148.24 172.204 1148.91 167.339 1144.94 162.411Z" />
<path d="M902.235 164.587C901.686 162.329 901.341 160.439 900.996 158.549C901.378 158.202 901.76 157.855 902.142 157.508C903.212 158.601 904.813 159.513 905.262 160.819C907.168 166.369 908.732 172.037 910.572 178.163C912.379 172.015 913.968 166.319 915.783 160.696C916.121 159.648 917.365 158.893 918.191 158.002C919.13 158.905 920.553 159.643 920.925 160.738C922.71 165.999 924.211 171.356 925.966 177.188C929.9 170.739 928.219 162.196 934.163 157.537C934.785 157.817 935.408 158.097 936.03 158.377C933.562 166.867 931.093 175.356 928.654 183.746C925.053 184.708 923.619 183.434 922.881 179.907C921.868 175.071 920.034 170.408 918.385 165.136C916.413 171.529 914.54 177.598 912.617 183.833C911.227 183.833 909.786 183.833 908.379 183.833C906.367 177.441 904.403 171.198 902.235 164.587Z" />
<path d="M384.25 167.617C385.435 171.183 386.404 174.39 387.558 178.208C389.611 171.169 391.513 164.65 393.398 158.188C396.288 157.558 397.551 158.398 398.239 161.443C399.422 166.676 401.358 171.739 403.165 177.467C405.431 170.54 407.394 164.368 409.583 158.278C409.711 157.924 411.678 158.232 413.107 158.232C410.576 166.883 408.119 175.284 405.642 183.749C402.021 184.706 400.563 183.475 399.846 179.621C398.945 174.78 396.946 170.144 395.363 165.241C393.473 171.359 391.595 177.435 389.636 183.775C388.407 183.775 386.966 183.775 385.251 183.775C382.764 175.465 380.251 167.063 377.723 158.613C381.962 157.991 383.104 159.659 384.25 167.617Z" />
<path d="M818.199 183.982C816.621 181.55 815.456 179.134 814.29 176.719C813.098 174.25 811.906 171.781 810.636 169.151C808.316 169.151 805.877 169.151 803 169.151C803 173.244 803.104 177.205 802.926 181.153C802.883 182.118 801.917 183.04 801.376 183.982C800.917 183.123 800.068 182.268 800.061 181.406C799.97 170.445 800.001 159.483 800.001 148.003C804.855 148.003 809.464 147.886 814.059 148.087C815.175 148.135 816.444 149.03 817.303 149.878C822.152 154.669 821.04 163.573 814.911 168.773C817.298 173.596 819.706 178.463 822.303 183.711C820.798 183.828 819.705 183.913 818.199 183.982ZM803.001 162.333C803.611 163.221 804.135 164.782 804.848 164.874C807.304 165.192 810.317 165.848 812.193 164.769C814.313 163.549 816.578 160.65 816.689 158.379C816.816 155.794 816.046 151.928 811.61 151.993C808.834 152.034 806.057 152.001 803.61 152.001C803.219 152.618 803.062 152.751 803.06 152.886C803.03 155.715 803.017 158.545 803.001 162.333Z" />
<path d="M778.999 154.119C778.999 164.241 778.999 173.877 778.999 182.99C775.139 183.696 771.598 184.494 768.014 184.961C763.727 185.519 760.18 183.538 759.378 179.513C758.38 174.5 757.713 169.039 758.659 164.108C760.165 156.253 769.388 154.526 775.999 159.782C775.999 156.773 775.84 154.014 776.076 151.289C776.174 150.161 777.12 149.107 777.68 148.02C778.12 149.06 778.677 150.069 778.96 151.15C779.163 151.928 778.999 152.802 778.999 154.119ZM770.15 180.997C774.943 178.739 776.615 174.389 775.037 168.277C773.223 161.247 771.019 159.025 766.753 161.389C764.19 162.809 762.342 166.486 761.331 169.533C759.492 175.075 763.86 180.868 770.15 180.997Z" />
<path d="M964.641 183.851C964.234 171.97 964.234 160.215 964.234 148.457C966.791 148.636 966.791 148.636 967.054 158.205C971.008 157.947 975.522 156.378 978.769 157.767C982.774 159.48 984.419 164.205 984.025 169.022C983.877 170.837 984.081 172.678 983.985 174.499C983.761 178.762 982.48 182.582 978.156 184.261C974.333 185.746 970.489 185.92 967.914 182.588C966.76 183.148 965.904 183.562 964.641 183.851ZM980.044 173.623C982.033 169.163 980.222 165.278 977.373 162.235C976.258 161.043 972.94 160.908 971.121 161.598C967.859 162.837 966.032 170.573 968.139 175.12C969.363 177.76 972.013 181.475 974.14 181.555C977.411 181.678 979.969 178.454 980.044 173.623Z" />
<path d="M593.737 157.088C600.679 156.545 606.839 156.787 609.167 164.619C610.953 170.624 610.52 180.046 604.804 183.112C596.759 187.426 589.295 184.7 586.322 176.783C583.6 169.532 586.713 161.14 593.737 157.088ZM589.52 172.012C590.856 178.903 593.846 181.672 599.222 180.997C603.53 180.457 608.126 174.253 606.859 169.757C605.105 163.532 603.146 160.582 597.188 161.058C591.017 161.55 589.947 166.486 589.52 172.012Z" />
<path d="M357.455 183.951C348.653 180.363 349.004 163.217 356.107 158.36C361.303 154.806 369.852 156.99 373.131 162.49C376.743 168.547 375.905 181.564 368.513 183.783C365.19 184.781 361.37 184.117 357.455 183.951ZM359.64 180.13C365.393 182.749 370.221 180.255 371.934 171.131C372.581 167.682 368.454 161.859 365.078 161.034C360.835 159.998 356.681 162.377 355.044 166.781C353.289 171.502 354.649 176.227 359.64 180.13Z" />
<path d="M1004.36 182.852C998.406 176.732 999.154 169.75 1001.17 162.914C1002.49 158.441 1009.05 155.936 1014.51 157.008C1017.75 157.644 1020.96 162.532 1021 166.895C1021.01 168.058 1021 169.22 1021 170.742C1015.19 170.742 1009.43 170.742 1003.63 170.742C1005.27 181.358 1009.92 183.531 1019.2 178.363C1021.13 181.391 1020.19 184.421 1016.46 184.673C1012.58 184.936 1008.6 183.695 1004.36 182.852ZM1004.02 166.018C1004.66 166.679 1005.28 167.879 1005.95 167.911C1009.81 168.094 1013.68 168 1017.55 168C1017.86 167.501 1018.17 167.002 1018.49 166.504C1016.24 164.438 1014.15 160.983 1011.71 160.71C1009.42 160.455 1006.76 163.576 1004.02 166.018Z" />
<path d="M1090.12 162.634C1092.88 160.494 1095.36 157.643 1098.22 157.205C1106.99 155.855 1110.38 160.077 1109.8 170.802C1104.06 170.802 1098.29 170.802 1092.47 170.802C1094.51 181.514 1099 183.547 1108.35 178.237C1110.95 180.866 1109.7 182.545 1107.03 184.015C1099 188.436 1089.11 182.85 1089.06 173.685C1089.04 170.134 1089.68 166.579 1090.12 162.634ZM1101.05 160.562C1096.36 160.676 1093.28 162.536 1093.1 167.862C1097.7 167.862 1102.12 167.862 1108.38 167.862C1105.54 164.925 1103.63 162.946 1101.05 160.562Z" />
<path d="M521.852 171C517.061 171 512.749 171 508.43 171C508.893 179.921 515.386 184.412 524.368 178.219C526.911 180.876 525.728 182.554 522.977 184.039C514.911 188.394 505.155 182.83 505.038 173.662C505.001 170.742 504.96 167.696 505.702 164.916C507.354 158.72 512.609 155.872 519.348 157.005C522.964 157.613 526.004 162.504 526.001 167.709C526 168.538 526.001 169.367 526.001 170.642C524.769 170.762 523.55 170.881 521.852 171ZM516.461 160.048C512.846 161.397 508.91 162.435 509.088 167.778C513.615 167.778 518.049 167.778 522.467 167.778C521.801 164.615 521.543 161.016 516.461 160.048Z" />
<path d="M422.71 157.098C433.665 156.974 436.287 159.735 435.854 170.777C430.12 170.777 424.361 170.777 418.545 170.777C420.389 181.441 424.943 183.537 434.253 178.316C436.197 181.53 436.037 182.316 433.097 183.983C425.179 188.475 415.361 182.87 414.963 173.777C414.664 166.955 415.07 160.603 422.71 157.098ZM429.954 161.448C423.325 159.506 420.034 161.395 419.176 167.81C423.645 167.81 428.092 167.81 432.769 167.81C432.013 165.873 431.26 163.945 429.954 161.448Z" />
<path d="M844.419 183.865C833.526 187.717 825.46 182.493 826.076 171.718C826.273 168.267 826.617 164.437 828.25 161.547C830.713 157.189 837.145 155.532 841.325 157.098C845.308 158.59 847.313 163.643 846.655 170.829C841.076 170.829 835.466 170.829 829.83 170.829C830.97 181.364 835.956 183.63 846.773 178.684C846.116 180.366 845.459 182.047 844.419 183.865ZM836.667 160.041C833.685 161.894 829.482 162.746 830.201 167.836C834.744 167.836 839.14 167.836 843.331 167.836C843.372 163.642 841.283 161.152 836.667 160.041Z" />
<path d="M880.979 173.102C882.868 181.625 887.83 183.125 896.409 178.173C898.78 180.869 897.792 182.558 894.911 184.068C886.758 188.34 877.155 182.78 877.022 173.558C876.982 170.759 876.769 167.846 877.419 165.177C878.898 159.105 884.075 156.178 890.981 156.999C894.914 157.466 898.011 162.258 897.999 167.856C897.998 168.686 897.999 169.515 897.999 170.999C892.704 170.999 887.454 170.959 882.209 171.072C881.781 171.081 881.377 172.127 880.979 173.102ZM893.971 164.754C893.011 161.491 890.334 159.662 887.49 160.386C884.248 161.211 880.606 162.889 881.149 167.805C885.641 167.805 890.086 167.805 894.547 167.805C894.376 167.102 894.188 166.33 893.971 164.754Z" />
<path d="M475.234 179.971C480.203 179.997 484.69 179.997 489.602 179.997C489.742 181.172 489.882 182.345 490.052 183.778C483.663 183.778 477.587 183.778 471.254 183.778C471.254 172.004 471.254 160.288 471.254 148.285C476.946 148.285 482.675 148.285 488.702 148.285C488.702 149.379 488.702 150.543 488.702 151.931C483.888 151.931 479.269 151.931 474.326 151.931C474.326 155.863 474.326 159.597 474.326 163.738C477.837 163.738 481.573 163.738 485.668 163.738C485.781 165.281 485.867 166.451 485.982 168.028C481.867 168.028 478.112 168.028 473.669 168.028C474.055 172.278 474.404 176.111 475.234 179.971Z" />
<path d="M1050.96 184.002C1047.17 184.002 1043.87 184.002 1040.29 184.002C1040.29 172.066 1040.29 160.349 1040.29 148.316C1045.88 148.316 1051.61 148.316 1057.74 148.316C1057.8 149.311 1057.88 150.479 1057.97 151.878C1052.96 151.878 1048.34 151.878 1043.36 151.878C1043.36 155.802 1043.36 159.536 1043.36 163.682C1046.78 163.682 1050.51 163.682 1054.61 163.682C1054.75 165.222 1054.87 166.395 1055.02 167.972C1050.94 167.972 1047.18 167.972 1043.22 167.972C1043.22 172.075 1043.22 175.807 1043.22 179.925C1048.39 179.925 1053.47 179.925 1058.77 179.925C1058.77 181.375 1058.77 182.448 1058.77 184.002C1056.34 184.002 1053.89 184.002 1050.96 184.002Z" />
<path d="M327 166.001C327 159.861 327 154.221 327 148.622C339.685 146.247 346.097 148.397 346.91 155.549C347.425 160.085 348.073 165.749 343.802 168.248C340.163 170.378 335.044 169.978 330.116 170.772C330.116 174.668 330.116 179.093 330.116 183.517C329.631 183.732 329.146 183.947 328.662 184.162C328.108 183.27 327.104 182.392 327.075 181.484C326.918 176.494 327 171.496 327 166.001ZM343.994 158.55C341.754 152.099 341.522 151.202 330.195 152.461C330.195 156.836 330.195 161.226 330.195 165.6C342.641 166.561 340.936 166.2 343.994 158.55Z" />
<path d="M1172.02 161.074C1173.38 159.605 1174.72 158.546 1176.06 157.488C1176.5 157.88 1176.95 158.272 1177.39 158.663C1173.25 169.877 1169.21 181.127 1164.9 192.275C1163.9 194.858 1158.2 196.345 1156.3 194.59C1155.49 193.836 1155.93 191.736 1155.88 191.157C1158.28 190.674 1160.81 190.836 1161.26 189.948C1162.48 187.532 1163.95 184.346 1163.3 182.046C1161.01 174.073 1157.87 166.346 1154.97 158.303C1157.43 157.87 1159.17 157.506 1160.14 160.884C1161.71 166.351 1164.08 171.589 1166.32 177.465C1168.38 171.674 1170.19 166.58 1172.02 161.074Z" />
<path d="M726 173.98C726 177.577 726 180.686 726 184.583C724.379 183.784 723.409 183.306 722.099 182.661C719.108 186.288 714.683 186.007 710.642 183.743C706.864 181.626 707.13 177.047 708.264 173.943C710.667 167.365 717.068 168.057 722.656 167.908C722.768 160.805 717.579 158.93 710.818 163.184C710.156 162.022 709.5 160.872 708.55 159.206C711.343 158.399 713.74 157.244 716.201 157.086C723.224 156.633 725.98 159.454 725.999 166.507C726.005 168.836 726 171.165 726 173.98ZM720.047 179.424C721.178 176.856 722.31 174.287 723.883 170.716C720.644 171.273 718.297 171.214 716.424 172.125C714.429 173.095 712.474 174.736 711.345 176.597C710.905 177.322 712.491 180.368 713.646 180.713C715.377 181.231 717.541 180.299 720.047 179.424Z" />
<path d="M941.068 162.955C940.053 161.855 939.439 160.752 938.401 158.887C942.025 158.192 945.112 157.262 948.243 157.081C952.726 156.822 955.862 159.963 955.964 164.582C956.103 170.902 955.998 177.227 955.998 184.385C954.471 183.706 953.415 183.237 952.098 182.651C949.144 186.147 944.93 185.898 940.938 183.904C936.908 181.89 937.193 177.394 938.208 174.26C940.471 167.27 947.155 168.211 952.85 167.817C950.634 159.974 948.484 159.084 941.068 162.955ZM941.482 177.991C943.127 179.3 945.109 181.984 946.359 181.678C951.32 180.463 952.096 175.833 953.074 171.553C946.68 170.655 943.292 172.314 941.482 177.991Z" />
<path d="M681.974 166.998C684.266 168.218 686.136 169.486 688.108 170.569C692.858 173.176 693.782 180.284 689.765 183.737C686.886 186.212 678.731 185.409 676.861 182.198C676.284 181.207 676.958 179.488 677.025 178.573C679.825 179.472 682.182 180.672 684.603 180.818C685.812 180.891 687.707 179.263 688.216 177.978C688.576 177.07 687.429 175.091 686.412 174.232C685.12 173.139 683.306 172.63 681.671 171.984C677.671 170.404 676.303 167.222 677.116 163.376C677.577 161.192 678.962 157.742 680.366 157.511C683.731 156.958 687.383 157.83 690.833 158.544C691.229 158.626 691.078 161.349 691.121 161.979C687.45 161.979 684.51 161.979 681.57 161.979C681.579 163.64 681.588 165.301 681.974 166.998Z" />
<path d="M631.347 157.125C632.84 159.837 634.605 162.378 634.856 165.059C635.349 170.335 635.079 175.691 634.937 181.009C634.907 182.127 634.069 183.225 633.603 184.332C633.068 184.195 632.534 184.059 631.999 183.922C631.999 178.645 632.373 173.33 631.835 168.109C631.582 165.648 630.135 162.111 628.249 161.278C624.834 159.768 622.017 162.22 620.822 165.731C620.007 168.129 619.337 170.635 619.069 173.143C618.77 175.938 619.116 178.798 618.927 181.612C618.872 182.433 617.946 183.196 617.419 183.985C616.947 183.142 616.076 182.304 616.064 181.454C615.957 173.815 616.001 166.173 616.001 157.296C617.737 158.576 618.769 159.338 620.008 160.251C622.26 156.271 626.68 156.91 631.347 157.125Z" />
<path d="M750 170.241C749.658 167.543 749.505 165.265 748.927 163.1C748.252 160.576 743.462 159.658 741.607 162.159C739.504 164.996 737.991 168.519 737.151 171.97C736.424 174.951 737.097 178.253 736.936 181.403C736.892 182.282 736.087 183.122 735.63 183.981C735.087 183.21 734.084 182.446 734.072 181.667C733.955 173.871 734.001 166.072 734.001 156.953C735.741 158.488 736.671 159.308 737.139 159.721C740.031 158.852 743.061 157.609 746.211 157.073C750.964 156.265 752.728 159.524 752.922 163.45C753.217 169.418 753.054 175.412 752.939 181.393C752.922 182.263 752.095 183.118 751.642 183.98C751.095 183.047 750.128 182.137 750.075 181.177C749.884 177.698 750 174.201 750 170.241Z" />
<path d="M860.091 157.445C862.023 157.093 863.693 157.149 865.341 156.982C869.904 156.521 871.722 159.41 871.904 163.108C872.239 169.889 872 176.699 872 183.497C871.51 183.703 871.02 183.909 870.53 184.115C870.02 183.079 869.152 182.073 869.061 181C868.603 175.62 868.651 170.181 867.927 164.843C867.319 160.367 862.838 159.059 860.053 162.683C858.017 165.331 856.874 168.901 856.132 172.238C855.498 175.091 856.133 178.206 855.925 181.186C855.857 182.15 854.898 183.052 854.346 183.982C853.898 183.115 853.072 182.253 853.06 181.381C852.958 173.741 853.001 166.098 853.001 157.205C854.768 158.568 855.795 159.361 857.083 160.355C857.697 159.77 858.759 158.761 860.091 157.445Z" />
<path d="M1070.2 164.452C1069.35 170.093 1068.74 175.386 1067.95 180.65C1067.77 181.814 1066.92 182.875 1066.38 183.984C1065.92 182.961 1065.08 181.944 1065.06 180.915C1064.95 173.44 1065 165.963 1065 157.242C1066.76 158.572 1067.79 159.357 1068.3 159.74C1070.96 158.85 1073.68 157.354 1076.51 157.125C1081.79 156.697 1083.91 158.979 1083.98 164.253C1084.06 169.742 1084.09 175.235 1083.92 180.72C1083.89 181.821 1082.88 182.893 1082.32 183.979C1081.88 182.937 1081.1 181.906 1081.06 180.85C1080.91 176.696 1081.33 172.497 1080.88 168.389C1080.59 165.869 1079.77 162.392 1077.99 161.297C1075.39 159.697 1072.32 161.407 1070.2 164.452Z" />
<path d="M538.247 180.057C542.631 182.363 545.804 180.644 549.041 177.604C549.836 178.967 550.504 180.112 551.208 181.319C546.703 185.13 541.805 186.4 536.604 184.084C531.115 181.64 530.163 176.698 529.897 171.097C529.301 158.546 539.279 154.17 547.675 158.294C550.457 159.661 550.422 159.731 549.188 162.903C545.728 162.254 542.434 161.304 539.111 161.187C537.904 161.145 536.353 162.89 535.431 164.163C531.622 169.422 532.59 175.273 538.247 180.057Z" />
<path d="M657.289 163.227C656.057 166.494 653.858 169.74 654.403 172.43C656.098 180.8 661.955 184.056 670.105 178.047C672.653 180.458 672.266 182.027 669.029 183.575C659.597 188.086 650.894 182.754 651.051 172.78C651.099 169.727 651.196 166.481 652.226 163.674C655.044 155.983 662.802 155.704 668.518 158.197C671.401 159.454 672.098 161.25 669.77 163.724C665.837 161.152 661.9 158.938 657.289 163.227Z" />
<path d="M558.001 170.025C556.985 166.918 560.481 162.753 555.279 161.468C555.155 161.438 555.271 159.44 555.427 159.417C559.791 158.787 557.287 155.356 558.045 153.284C558.353 152.441 559.134 151.772 559.699 151.023C560.133 151.737 560.862 152.42 560.94 153.171C561.124 154.95 560.999 156.762 560.999 158.926C563.054 158.926 564.806 158.926 566.558 158.926C566.765 159.483 566.972 160.041 567.179 160.598C565.355 161.283 563.53 161.968 561.415 162.762C559.454 174.843 561.072 179.652 567.801 180.339C567.801 181.403 567.801 182.486 567.801 183.568C560.111 184.5 558.008 182.64 558.001 174.996C558 173.499 558.001 172.002 558.001 170.025Z" />
<path d="M1119 177.993C1118.67 180.397 1118.35 182.332 1118.02 184.267C1117.44 184.156 1116.87 184.044 1116.29 183.933C1116.29 175.356 1116.29 166.78 1116.29 158.204C1116.63 158 1116.98 157.796 1117.32 157.592C1118.12 158.842 1118.91 160.093 1119.26 160.637C1121.68 159.628 1124.43 158.486 1127.17 157.344C1127.63 157.925 1128.08 158.505 1128.54 159.086C1127.53 160.06 1126.68 161.47 1125.47 161.932C1120.24 163.936 1120.1 168.759 1119.06 173.044C1118.71 174.458 1119 176.027 1119 177.993Z" />
<path d="M572 165.102C572 162.473 572 160.329 572 158.185C572.44 157.986 572.881 157.788 573.321 157.589C574.116 158.842 574.91 160.095 575.254 160.636C577.685 159.625 580.428 158.484 583.171 157.344C583.626 157.924 584.081 158.505 584.536 159.085C583.525 160.059 582.681 161.433 581.473 161.939C575.956 164.251 575.688 169.279 575.062 174.029C574.716 176.645 575.139 179.356 574.916 181.999C574.845 182.841 573.81 183.602 573.217 184.4C572.811 184.24 572.406 184.08 572 183.919C572 177.808 572 171.697 572 165.102Z" />
<path d="M442.02 182.655C442.002 174.213 442.002 166.243 442.002 158.273C442.436 158.053 442.87 157.834 443.304 157.614C444.116 158.837 444.928 160.06 445.326 160.659C447.626 159.67 450.368 158.491 453.111 157.312C453.572 157.873 454.034 158.434 454.495 158.995C453.524 159.999 452.735 161.455 451.552 161.928C445.953 164.166 445.778 169.255 445.07 173.955C444.677 176.559 445.058 179.272 444.979 181.932C444.907 184.391 443.89 184.875 442.02 182.655Z" />
<path d="M993.503 183.797C992.403 182.068 991.129 180.524 991.096 178.955C990.905 169.68 990.96 160.399 991.06 151.121C991.071 150.083 991.887 149.053 992.329 148.02C992.887 149.104 993.906 150.178 993.927 151.273C994.071 158.561 993.972 165.853 994.016 173.143C994.034 176.086 993.262 179.443 997.588 180.433C997.947 180.515 997.881 182.459 998.066 183.971C996.451 183.971 995.177 183.971 993.503 183.797Z" />
<path d="M499.001 158.037C499.001 162.36 498.761 166.208 499.068 170.013C499.376 173.821 496.989 178.733 502.832 180.741C503.128 180.843 502.87 182.558 502.87 183.508C496.913 184.329 496.017 183.598 496.006 177.859C495.987 168.061 496.001 158.264 496.001 148.449C499.001 148.649 499.001 148.649 499.001 158.037Z" />
<path d="M580.151 36.0019C582.907 36 585.188 36 587.731 36C587.731 39.6084 587.731 42.9908 587.731 46.6887C584.803 46.6887 581.75 46.6887 577.383 46.6887C578.14 43.1599 578.909 39.5819 580.151 36.0019Z" />
<path d="M644.973 158.039C645.626 166.136 645.836 174.201 645.941 182.268C645.948 182.831 645.25 183.773 644.754 183.866C644.262 183.958 643.1 183.195 643.104 182.814C643.173 174.579 643.364 166.346 643.573 158.112C643.574 158.07 644.18 158.043 644.973 158.039Z" />
<path d="M2280.73 115.414C2281.55 125.433 2282.14 135.04 2282.74 144.826C2279.98 144.826 2277.35 144.826 2273.91 144.826C2273.16 135.81 2272.4 126.651 2271.61 116.97C2268.3 126.067 2264.93 134.66 2262.12 143.433C2261 146.902 2258.69 145.827 2256.61 145.963C2254.49 146.102 2252.8 146.22 2251.84 143.153C2249.14 134.492 2245.76 126.044 2242.33 116.633C2241.85 123.941 2241.21 130.347 2241.05 136.765C2240.84 145.198 2241 145.202 2231.87 144.829C2232.99 131.021 2234.11 117.231 2235.23 103.472C2235.6 103.299 2235.88 103.056 2236.17 103.049C2246.97 102.809 2246.98 102.807 2250.46 112.956C2252.73 119.555 2254.94 126.17 2257.37 133.33C2260.63 124.005 2263.85 115.457 2266.53 106.741C2267.45 103.761 2268.62 102.668 2271.63 102.949C2274.24 103.192 2276.9 102.999 2279.68 102.999C2279.97 107.192 2280.24 111.097 2280.73 115.414Z" />
<path d="M1827.51 21.0003C1829.27 21.8257 1831.04 22.3461 1831.86 23.5256C1837.14 31.1376 1842.22 38.8935 1847.89 47.3924C1847.89 38.1857 1847.89 29.8434 1847.89 21.2549C1850.68 21.2549 1853.08 21.2549 1856 21.2549C1856 28.1762 1856 35.1122 1856 42.0482C1856 48.8513 1856 55.6544 1856 62.4181C1850.45 64.3403 1847.01 62.4043 1844.13 57.6806C1839.66 50.3394 1834.64 43.335 1829.05 35.0015C1829.05 45.1591 1829.05 53.8548 1829.05 62.7705C1826.28 62.7705 1823.88 62.7705 1821.23 62.7705C1821.23 48.9672 1821.23 35.2324 1821.23 21C1823.21 21 1825.14 21 1827.51 21.0003Z" />
<path d="M2327.41 143.852C2319.18 144.475 2311.35 144.965 2303 145.488C2303 137.764 2303 130.832 2303 123.901C2303 117.109 2303 110.317 2303 102.609C2310.11 103.06 2317.12 102.618 2323.68 104.13C2333.11 106.304 2334.99 115.169 2328.23 122.313C2336.07 131.683 2335.97 137.147 2327.41 143.852ZM2312 136.27C2315.49 140.418 2319.38 137.51 2322.8 136.401C2323.99 136.016 2325.39 132.322 2324.78 131.039C2322.17 125.503 2316.94 127.213 2312 127.045C2312 130.061 2312 132.695 2312 136.27ZM2318.12 111.001C2316.19 111.001 2314.25 111.001 2312.18 111.001C2312.18 114.188 2312.18 116.934 2312.18 120.322C2314.46 119.84 2316.56 119.717 2318.36 118.92C2320.06 118.163 2321.46 116.698 2322.99 115.545C2321.66 114.031 2320.33 112.516 2318.12 111.001Z" />
<path d="M2088.79 141.292C2078.69 130.203 2079.75 112.455 2092.11 105.001C2099.45 100.573 2107 101.051 2113.97 105.598C2121.02 110.205 2124.74 120.767 2122.78 128.544C2118.49 145.59 2103.29 151.46 2088.79 141.292ZM2092.02 118.904C2090.45 123.972 2091.14 128.986 2094.19 133.04C2095.92 135.348 2099.19 137.38 2102.03 137.793C2107.92 138.652 2111.67 134.614 2113.73 126.656C2114.97 121.848 2111.57 114.313 2107.63 111.883C2102.46 108.702 2095.36 110.411 2092.02 118.904Z" />
<path d="M1596.92 144.424C1588.09 140.079 1585.26 132.262 1585.23 123.908C1585.21 115.534 1588.68 107.995 1596.89 104.049C1609.06 98.1983 1625.6 105.832 1626.03 121.229C1626.21 127.7 1625.96 133.976 1621.35 139.159C1614.61 146.731 1606.3 147.434 1596.92 144.424ZM1603.08 137.986C1605.59 137.615 1608.48 137.91 1610.56 136.757C1618.84 132.175 1618.56 121.264 1614.45 115.185C1612.2 111.855 1608.75 109.035 1603.72 110.673C1598.51 112.369 1595.57 115.934 1595.08 121.123C1594.45 127.837 1595.3 134.218 1603.08 137.986Z" />
<path d="M1734.41 104.144C1742.47 107.693 1743.09 115.934 1738.06 123.178C1742.75 126.46 1744.49 131.562 1742.9 137.31C1741.82 141.177 1736.29 144.952 1731.5 144.989C1725.53 145.036 1719.57 145 1713.3 145C1713.3 131.097 1713.3 117.38 1713.3 102.625C1720.12 103.083 1727.07 103.55 1734.41 104.144ZM1726.28 127C1724.88 127.085 1723.49 127.17 1722.29 127.243C1722.29 131.103 1722.29 134.501 1722.29 138.497C1725.65 137.87 1728.76 137.675 1731.54 136.611C1732.96 136.07 1734.44 134.055 1734.65 132.536C1734.81 131.359 1733.3 129.556 1732.07 128.69C1730.71 127.735 1728.83 127.531 1726.28 127ZM1726.08 119.977C1726.97 119.652 1728.04 119.538 1728.71 118.96C1730.24 117.641 1731.58 116.095 1732.99 114.642C1731.5 113.431 1730.18 111.7 1728.48 111.148C1726.59 110.538 1724.36 111.009 1722 111.009C1722 113.418 1722.18 115.389 1721.96 117.312C1721.64 120.083 1723.2 120.216 1726.08 119.977Z" />
<path d="M1762 108.113C1762 106.175 1762 104.725 1762 103.016C1768.28 103.016 1774.15 102.453 1779.85 103.183C1784.97 103.84 1789.51 106.777 1790.9 112.19C1792.81 119.627 1790.8 123.997 1784.05 128.505C1787.69 133.498 1791.32 138.486 1795.15 143.745C1792.17 144.563 1789.62 145.492 1786.99 145.858C1786.1 145.983 1784.73 144.895 1784.06 144.001C1781.15 140.133 1778.52 136.06 1775.58 132.22C1774.71 131.084 1773.16 130.469 1771.17 129.099C1771.17 134.901 1771.17 139.644 1771.17 144.691C1768.1 144.691 1765.36 144.691 1762 144.691C1762 132.776 1762 120.689 1762 108.113ZM1773.48 122.001C1774.47 122.001 1775.68 122.364 1776.41 121.931C1778.38 120.775 1781.04 119.652 1781.8 117.835C1783.2 114.508 1780.61 112.255 1777.66 111.338C1775.75 110.743 1773.5 111.226 1770.29 111.226C1771.09 114.995 1771.82 118.496 1773.48 122.001Z" />
<path d="M2016.88 20.9983C2022.34 20.8622 2027.37 21.0214 2030.71 25.3896C2035.78 32.0306 2033.74 41.0053 2026.11 46.4175C2029.75 51.2947 2033.4 56.1699 2037.3 61.3854C2033.87 62.272 2030.73 63.0839 2027.79 63.8452C2023.31 57.9445 2018.91 52.1511 2014.52 46.3577C2014.04 46.6333 2013.56 46.9089 2013.09 47.1845C2013.09 52.2722 2013.09 57.3598 2013.09 62.72C2010.04 62.72 2007.3 62.72 2004.28 62.72C2004.28 49.0746 2004.28 35.3513 2004.28 20.9983C2008.23 20.9983 2012.32 20.9983 2016.88 20.9983ZM2015.48 28.9988C2014.65 29.6565 2013.19 30.2534 2013.12 30.9825C2012.84 33.8854 2013 36.8294 2013 39.9983C2014.41 39.9983 2015.37 40.0063 2016.34 39.9969C2021.35 39.948 2024.02 37.8672 2024 33.9919C2023.97 28.5129 2019.97 29.0792 2015.48 28.9988Z" />
<path d="M1984.38 103.409C1987.33 103.059 1989.96 103.059 1992.79 103.059C1992.79 117.089 1992.79 130.831 1992.79 144.786C1989.9 144.786 1987.17 144.786 1984.03 144.786C1984.03 139.247 1984.03 133.828 1984.03 128.211C1978.56 128.211 1973.49 128.211 1968.02 128.211C1968.02 133.77 1968.02 139.188 1968.02 144.794C1964.89 144.794 1962.15 144.794 1959.21 144.794C1959.21 130.889 1959.21 117.148 1959.21 103.202C1962.11 103.202 1964.85 103.202 1967.98 103.202C1967.98 108.433 1967.98 113.519 1967.98 118.793C1973.45 118.793 1978.52 118.793 1984.05 118.793C1984.05 113.665 1984.05 108.712 1984.38 103.409Z" />
<path d="M1651.07 45.0006C1648.93 45.0006 1647.28 45.0006 1645.23 45.0006C1645.23 50.8927 1645.23 56.6346 1645.23 62.6873C1642.1 62.6873 1639.36 62.6873 1636.31 62.6873C1636.31 49.1167 1636.31 35.3744 1636.31 21.3155C1638.89 21.3155 1641.63 21.3155 1644.78 21.3155C1644.78 26.2145 1644.78 31.2967 1644.78 36.6889C1650.57 36.6889 1655.97 36.6889 1661.79 36.6889C1661.79 31.7663 1661.79 26.6897 1661.79 21.3086C1664.91 21.3086 1667.65 21.3086 1670.7 21.3086C1670.7 34.8952 1670.7 48.6373 1670.7 62.6909C1668.1 62.6909 1665.36 62.6909 1662.22 62.6909C1662.22 57.1106 1662.22 51.3612 1662.22 45.0006C1658.42 45.0006 1654.99 45.0006 1651.07 45.0006Z" />
<path d="M2398 103.001C2402.22 102.009 2403.62 104.465 2404.73 107.333C2409.4 119.413 2414.07 131.494 2418.75 143.599C2412.12 147.712 2409.51 147.067 2407.49 139.763C2406.4 135.824 2404.69 134.508 2400.75 134.926C2397.3 135.293 2393.77 135.012 2390.28 135.023C2390.12 135.023 2389.96 135.077 2389.6 135.14C2388.38 138.273 2387.11 141.505 2385.8 144.855C2382.97 144.855 2380.17 144.855 2376.71 144.855C2380.86 134.196 2384.87 123.838 2388.91 113.488C2389.78 111.255 2391.19 109.12 2391.53 106.818C2392.12 102.881 2394.57 102.717 2398 103.001ZM2396.88 115.628C2395.5 119.254 2394.11 122.88 2392.59 126.853C2396.39 126.853 2399.47 126.853 2403.19 126.853C2401.02 122.651 2399.02 118.768 2396.88 115.628Z" />
<path d="M2186.94 144.442C2180.23 141.363 2178.49 135.508 2178.13 129.488C2177.62 120.885 2178 112.229 2178 103.299C2180.93 103.299 2183.66 103.299 2187 103.299C2187 110.749 2186.76 118.35 2187.11 125.924C2187.26 128.994 2188.21 132.247 2189.63 134.984C2191.53 138.643 2195.36 138.803 2198.75 137.632C2202.21 136.44 2204.09 133.701 2204.04 129.724C2203.92 120.948 2204 112.169 2204 103.199C2207.12 103.199 2209.86 103.199 2212.06 103.199C2212.06 114.215 2212.28 125.054 2211.97 135.877C2211.8 141.579 2204.78 146.024 2198.84 145.933C2194.96 145.874 2191.09 145.159 2186.94 144.442Z" />
<path d="M1794.07 21.0013C1796.19 21.0012 1797.83 21.0012 1799.99 21.0012C1799.99 30.9817 1800.95 40.8593 1799.74 50.4624C1798.36 61.3751 1789.18 65.5019 1778.52 63.6911C1768.39 61.9701 1765.06 55.0706 1765.01 46.4354C1764.96 38.1417 1765 29.8476 1765 21.2786C1767.96 21.2786 1770.7 21.2786 1774 21.2786C1774 29.1234 1773.85 37.0521 1774.08 44.9697C1774.16 47.4383 1774.5 50.6882 1776.06 52.1313C1778.19 54.0949 1781.74 55.866 1784.42 55.5547C1788.38 55.096 1790.92 51.7235 1790.97 47.3547C1791.06 39.7031 1791.01 32.0498 1790.99 24.3973C1790.98 22.5535 1790.62 20.5201 1794.07 21.0013Z" />
<path d="M1721 57.1048C1721 59.2168 1721 60.8563 1721 62.7424C1711.68 62.7424 1702.61 62.7424 1693.27 62.7424C1693.27 49.0107 1693.27 35.2806 1693.27 21.2734C1701.97 21.2734 1710.71 21.2734 1719.72 21.2734C1719.72 23.6285 1719.72 26.034 1719.72 28.8387C1714.06 28.8387 1708.31 28.8387 1702.28 28.8387C1702.28 31.6185 1702.28 34.0242 1702.28 36.831C1706.93 36.831 1711.69 36.831 1716.56 36.831C1717 39.6676 1717.38 42.1494 1717.82 44.981C1712.67 44.981 1707.57 44.981 1702.23 44.981C1702.23 48.3855 1702.23 51.4558 1702.23 54.9981C1707.41 54.9981 1712.53 54.9018 1717.63 55.0725C1718.77 55.1105 1719.87 56.0876 1721 57.1048Z" />
<path d="M1966 47.1462C1966 49.9214 1966 52.2213 1966 54.9153C1972.03 54.9153 1977.78 54.9153 1983.76 54.9153C1983.76 57.7081 1983.76 60.1127 1983.76 62.7628C1974.97 62.7628 1966.23 62.7628 1957.24 62.7628C1957.24 48.9566 1957.24 35.2204 1957.24 21.2422C1966.05 21.2422 1974.79 21.2422 1983.77 21.2422C1983.77 23.7146 1983.77 26.1192 1983.77 28.925C1977.97 28.925 1972.21 28.925 1966.23 28.925C1966.23 31.7168 1966.23 34.1215 1966.23 37.0013C1968.91 37.0013 1971.52 37.0011 1974.14 37.0013C1981.34 37.0019 1981.34 37.0019 1980.67 45.0015C1976.76 45.0015 1972.79 44.8949 1968.84 45.0777C1967.87 45.1225 1966.95 46.1144 1966 47.1462Z" />
<path d="M1923.03 117.002C1928.02 119.247 1932.85 121.082 1937.16 123.744C1944.23 128.103 1943.45 139.278 1936.24 143.343C1928.38 147.776 1920.64 146.235 1912.89 143.327C1912.05 143.01 1911.1 141.488 1911.15 140.576C1911.26 138.522 1911.97 136.5 1912.4 134.603C1916.75 135.702 1921.25 137.405 1925.85 137.765C1928.13 137.944 1931.92 136.212 1932.71 134.357C1934.24 130.763 1930.96 129.648 1927.82 128.887C1925.53 128.332 1923.42 127.024 1921.24 126.018C1913.45 122.416 1911.06 117.903 1913.11 110.666C1914.56 105.527 1922.27 101.801 1928.94 102.963C1931.32 103.379 1933.73 103.848 1936.14 103.933C1939.9 104.068 1940.84 105.399 1939.13 108.904C1938.54 110.107 1939.03 111.842 1939.03 112.624C1934.3 112.069 1929.65 111.041 1925.02 111.13C1921.24 111.204 1920.03 113.623 1923.03 117.002Z" />
<path d="M2079 24.1604C2078.82 26.7372 2078.64 28.8767 2078.48 30.7532C2073.8 29.6912 2070.09 28.3901 2066.33 28.2036C2064.62 28.1185 2062.79 30.2317 2061.01 31.3478C2062.35 32.8919 2063.44 34.8428 2065.1 35.8751C2067.09 37.1116 2069.6 37.4666 2071.82 38.3733C2080.32 41.851 2082.41 45.0491 2080.81 54.155C2080.37 56.6449 2078.1 59.4117 2075.89 60.8757C2069.99 64.7851 2063.38 64.1664 2056.85 62.3964C2055.01 61.8977 2053.2 61.2786 2050.79 60.5324C2051.21 57.8262 2051.65 55.0113 2052.11 52.0921C2055.97 53.3275 2059.55 54.5645 2063.19 55.5844C2064.58 55.9749 2066.39 56.4299 2067.52 55.8671C2069.54 54.8576 2071.18 53.1002 2072.99 51.6553C2071.61 50.0996 2070.51 48.0914 2068.81 47.0962C2066.37 45.6673 2063.5 44.9757 2060.81 43.9711C2055.08 41.8317 2051.28 36.4571 2052.01 31.5175C2052.95 25.0749 2057.39 20.4922 2063.87 20.0829C2069.18 19.7481 2074.73 19.3305 2079 24.1604Z" />
<path d="M1916.02 58.9361C1911.69 47.5143 1907.31 36.5235 1903.15 25.4513C1902.7 24.2402 1903.49 22.5608 1903.71 21.0986C1906.39 22.034 1910 16.9816 1912 22.4012C1915.48 31.8429 1918.99 41.2757 1922.57 50.94C1925.76 41.8637 1928.94 32.9901 1931.98 24.067C1932.78 21.7175 1934 20.6642 1936.56 20.9561C1938.52 21.1812 1940.54 21.001 1942.95 21.001C1938.57 32.0992 1934.29 42.9395 1930.03 53.7869C1929.62 54.8264 1929.33 55.9124 1928.98 56.9741C1926.59 64.1622 1926.59 64.162 1918.5 63.8597C1917.71 62.4085 1916.87 60.876 1916.02 58.9361Z" />
<path d="M2036.58 135.086C2036.06 128.824 2034.83 122.661 2035.84 116.896C2038.03 104.488 2051.75 97.9959 2066.46 104.824C2067 105.074 2067.54 105.334 2068 105.557C2067.5 108.523 2067.03 111.205 2066.46 114.54C2059.19 110.127 2051.81 106.605 2046 116.106C2042.49 121.861 2043.24 131.052 2047.73 135.148C2054.09 140.958 2060.35 137.822 2066.46 134.323C2069.8 140.797 2068.09 143.992 2060.33 145.867C2050.69 148.195 2042.03 144.316 2036.58 135.086Z" />
<path d="M2191.67 42.8348C2190.24 49.4453 2189.09 55.79 2187.85 62.6524C2186.17 62.6524 2183.44 62.6524 2179.55 62.6524C2184.5 46.0063 2171.79 35.2191 2165.1 22.2017C2173.76 18.698 2174.23 18.9078 2178.23 26.588C2179.93 29.8598 2181.86 33.0146 2183.74 36.193C2183.96 36.5666 2184.5 36.7517 2185.13 37.1921C2188.23 31.9006 2191.27 26.7047 2194.48 21.2233C2197.62 21.2233 2201.05 21.2233 2204.85 21.2233C2200.53 28.3725 2196.24 35.4707 2191.67 42.8348Z" />
<path d="M1644 139.886C1644 127.441 1644 115.484 1644 103.266C1652.66 103.266 1661.06 103.266 1669.73 103.266C1669.73 105.648 1669.73 108.052 1669.73 110.853C1664.38 110.853 1658.97 110.853 1653.28 110.853C1653.28 113.964 1653.28 116.701 1653.28 119.838C1657.61 119.838 1662.03 119.838 1666.57 119.838C1667 122.675 1667.38 125.155 1667.81 127.985C1663 127.985 1658.23 127.985 1653.07 127.985C1653.07 133.718 1653.07 139.131 1653.07 144.766C1649.95 144.766 1647.22 144.766 1644 144.766C1644 143.265 1644 141.82 1644 139.886Z" />
<path d="M2137 59.8205C2137 49.3758 2137 39.4152 2137 29.0604C2132.6 29.0604 2128.52 29.0604 2124.22 29.0604C2124.22 26.2643 2124.22 23.8595 2124.22 20.9995C2134.76 20.9995 2145.21 20.7989 2155.66 21.0779C2161.52 21.2346 2158.02 25.9154 2159.23 28.9639C2154.61 28.9639 2150.51 28.9639 2146.04 28.9639C2146.04 40.4187 2146.04 51.497 2146.04 63.3964C2142.88 61.3556 2138.5 66.3496 2137 59.8205Z" />
<path d="M1848.03 143.743C1848 132.65 1848 122.035 1848 111.03C1843.57 111.03 1839.48 111.03 1835.21 111.03C1835.21 108.237 1835.21 105.834 1835.21 103.001C1845.78 103.001 1856.24 102.724 1866.65 103.292C1868.26 103.38 1869.66 107.345 1871.15 109.517C1870.75 109.913 1870.35 110.309 1869.95 110.705C1865.87 110.705 1861.79 110.705 1857.15 110.705C1857.15 122.251 1857.15 133.449 1857.15 145.36C1853.7 144.929 1850.88 144.576 1848.03 143.743Z" />
<path d="M1608.39 29.4063C1608.06 40.7012 1608.06 51.6489 1608.06 62.7958C1604.89 62.7958 1602.16 62.7958 1599.03 62.7958C1599.03 51.5727 1599.03 40.4992 1599.03 29.0411C1594.92 29.0411 1591.16 29.0411 1587.21 29.0411C1587.21 26.2491 1587.21 23.8453 1587.21 21.2188C1598.41 21.2188 1609.49 21.2188 1620.63 21.2188C1621.09 23.6395 1621.53 25.9853 1622.11 29.059C1617.53 29.059 1613.12 29.059 1608.39 29.4063Z" />
<path d="M2149 128.947C2149 131.753 2149 134.067 2149 136.783C2153.9 136.783 2158.65 136.783 2163.57 136.783C2164.15 139.59 2164.67 142.042 2165.24 144.782C2156.75 144.782 2148.65 144.782 2140.28 144.782C2140.28 131.035 2140.28 117.308 2140.28 103.289C2142.94 103.289 2145.68 103.289 2149 103.289C2149 111.603 2149 120.029 2149 128.947Z" />
<path d="M1821 106.175C1821 119.291 1821 131.921 1821 144.775C1817.6 144.775 1814.53 144.775 1811.23 144.775C1811.23 130.93 1811.23 117.188 1811.23 102.744C1814.46 104.664 1818.99 99.7387 1821 106.175Z" />
<path d="M2110 31.0296C2110 41.8314 2110 52.1386 2110 62.7225C2106.7 62.7225 2103.63 62.7225 2100.27 62.7225C2100.27 49.0382 2100.27 35.2969 2100.27 21.2773C2103.3 21.2773 2106.37 21.2773 2110 21.2773C2110 24.3139 2110 27.4245 2110 31.0296Z" />
<path d="M1884 108.117C1884 106.189 1884 104.747 1884 103.156C1887.08 103.156 1889.69 103.156 1892.66 103.156C1892.66 116.875 1892.66 130.692 1892.66 144.756C1889.98 144.756 1887.25 144.756 1884 144.756C1884 132.702 1884 120.653 1884 108.117Z" />
<path d="M2356.08 103.002C2358.19 103.002 2359.82 103.002 2361.73 103.002C2361.73 116.916 2361.73 130.612 2361.73 144.656C2359.17 144.656 2356.44 144.656 2353 144.656C2353 140.4 2353 135.831 2353 131.263C2353 122.969 2353.01 114.675 2352.99 106.382C2352.99 104.535 2352.64 102.521 2356.08 103.002Z" />
<path d="M1887 29.0537C1887 40.5184 1887 51.4916 1887 62.7314C1884.01 62.7314 1881.28 62.7314 1878.27 62.7314C1878.27 49.0204 1878.27 35.2766 1878.27 21.2656C1880.99 21.2656 1883.73 21.2656 1887 21.2656C1887 23.6778 1887 26.12 1887 29.0537Z" />
<path d="M1460.77 100.19C1464.03 100.804 1463.03 102.909 1462.55 104.98C1458.99 120.143 1455.49 135.318 1451.76 151.404C1462.06 141.666 1471.73 132.526 1481.39 123.386C1481.73 123.517 1482.08 123.648 1482.42 123.778C1477.62 135.67 1472.82 147.561 1467.53 160.652C1476.19 154.323 1483.88 148.711 1491.57 143.098C1492 143.371 1492.43 143.643 1492.87 143.915C1488.66 153.023 1485 162.43 1480.16 171.18C1468.46 192.292 1448.91 203.037 1426.77 209.982C1425.59 210.353 1424.05 210.376 1422.9 209.963C1406.78 204.213 1391.5 197.088 1379.59 184.159C1370.87 174.691 1365.85 163.213 1361.02 151.586C1359.89 148.862 1358.94 146.062 1358.65 142.804C1366.27 148.473 1373.89 154.142 1381.5 159.81C1381.79 159.672 1382.07 159.534 1382.35 159.396C1377.47 147.428 1372.58 135.461 1367.7 123.494C1368.01 123.292 1368.31 123.09 1368.62 122.888C1378.24 132.144 1387.86 141.401 1398.47 151.613C1397.06 145.084 1395.96 139.7 1394.71 134.351C1392.19 123.55 1389.58 112.771 1387.1 101.961C1387.04 101.692 1388.06 101.174 1388.85 100.442C1389.14 100.111 1389.05 100.024 1389.05 100.024C1391.04 104.026 1392.79 108.165 1395.05 112.002C1401.66 123.204 1408.48 134.285 1416 146.719C1419.01 125.222 1421.87 104.838 1424.73 84.4531C1425.06 84.4783 1425.4 84.5035 1425.73 84.5287C1428.57 105.139 1431.42 125.749 1434.39 147.299C1443.67 131.363 1452.62 115.979 1461.22 100.354C1460.87 100.112 1460.77 100.19 1460.77 100.19Z" />
<path d="M1481.92 82.0199C1474.06 79.2818 1466.7 78.962 1459.15 81.9074C1451.65 84.8336 1443.96 85.1206 1436.36 81.9874C1428.41 78.7068 1420.42 79.2881 1412.59 82.1517C1405.19 84.8552 1398.26 84.5242 1390.88 81.5783C1383.96 78.8142 1376.62 79.0007 1369.43 81.8612C1366.05 83.206 1362.35 83.7496 1359.04 84.592C1358.4 83.6314 1358.07 83.3597 1358.07 83.0881C1358.07 79.9319 1357.05 76.0979 1358.48 73.8259C1359.71 71.879 1363.83 71.8626 1366.57 70.7456C1376.41 66.7346 1386.06 67.1476 1395.81 71.2533C1401.02 73.4465 1406.46 72.6558 1411.63 70.7073C1420.8 67.2499 1429.71 66.8181 1439 70.8331C1444.79 73.3382 1451.12 72.9018 1457.13 70.4315C1465.63 66.9328 1474.17 67.0095 1482.72 70.3042C1483.62 70.6496 1484.59 70.8091 1485.51 71.1039C1493.71 73.7389 1493.71 73.7421 1492.5 84.6412C1489.04 83.7549 1485.69 82.8978 1481.92 82.0199Z" />
<path d="M1433.71 15.9989C1445.36 19.9585 1447.35 28.5133 1439.16 37.5597C1445.3 41.3116 1447.34 45.3696 1445.95 51.8652C1444.73 57.5269 1440.73 61.1222 1435.35 61.8341C1427.11 62.9236 1418.74 62.9544 1410.2 63.4476C1410.2 46.8896 1410.2 31.1837 1410.2 14.5703C1417.99 15.0527 1425.64 15.5255 1433.71 15.9989ZM1421.56 42.074C1421.32 45.951 1421.07 49.828 1420.8 53.9927C1423.77 53.9927 1426.14 54.343 1428.35 53.9058C1431.25 53.3336 1433.86 52.2516 1434.08 48.3668C1434.3 44.5667 1432.13 43.5412 1429.17 43.0124C1426.95 42.6155 1424.71 42.3361 1421.56 42.074ZM1421.05 24.7767C1421.05 27.7298 1421.05 30.683 1421.05 34.3685C1423.77 33.9009 1426.27 33.9067 1428.35 32.9836C1430.13 32.1927 1431.44 30.3378 1432.96 28.9535C1431.18 27.3048 1429.63 25.1674 1427.54 24.1652C1425.93 23.3926 1423.63 24.0458 1421.05 24.7767Z" />
<path d="M1399.38 53.1324C1397.66 61.5492 1382.63 65.5602 1374.12 63.6518C1366.86 62.0251 1360.57 59.2429 1358.62 51.1064C1358.32 49.8608 1358.03 48.5735 1358.03 47.3042C1357.98 36.689 1358 26.0735 1358 15.2305C1362.06 15.2305 1365.79 15.2305 1370 15.2305C1370 25.079 1369.99 34.8444 1370 44.6098C1370.01 50.3211 1373.51 53.7589 1379.16 54.0364C1384.63 54.3055 1389.07 50.4754 1389.02 44.6766C1388.95 35.0269 1389 25.3763 1389 15.3628C1392.79 15.3628 1396.53 15.3628 1401 15.3628C1401 23.9442 1401.13 32.8474 1400.94 41.744C1400.86 45.4535 1400.12 49.1489 1399.38 53.1324Z" />
<path d="M1464 34.2157C1461.83 40.0075 1463.24 44.8456 1466.65 49.0791C1470.55 53.9337 1475.96 54.9236 1481.77 53.6442C1483.91 53.174 1485.93 52.0385 1487.89 50.9755C1490.45 49.5797 1491.84 49.8443 1492.03 53.0848C1492.16 55.1582 1492.61 57.2117 1492.96 59.5619C1482.13 64.9954 1471.63 65.9343 1460.51 59.3245C1452.78 54.7357 1449.73 41.1268 1451.53 32.8359C1454.28 20.2016 1467.06 12.178 1481.41 14.9801C1481.73 15.0429 1482.08 14.9715 1482.41 15.0018C1492.31 15.9105 1494.07 19.1042 1489.89 28.5905C1477.22 21.2077 1467.91 23.079 1464 34.2157Z" />
<path d="M1460.91 100.069C1453.38 102.457 1446.01 104.251 1437.89 101.225C1432.98 99.3944 1431.04 96.7308 1430.99 91.9376C1430.97 90.5012 1430.81 89.0666 1430.68 87.1485C1431.44 87.1971 1432.77 86.9293 1433.76 87.3994C1442.19 91.4449 1450.26 91.9502 1459.38 88.3155C1466.56 85.4564 1474.72 85.9748 1482.38 88.9308C1485.63 90.1853 1489.14 90.7495 1492.81 91.6994C1492.81 95.1012 1492.81 98.866 1492.81 103.667C1487.84 102.361 1483.06 101.648 1478.73 99.8417C1472.77 97.3532 1467.03 97.8969 1460.95 99.7859C1460.77 100.191 1460.86 100.113 1460.91 100.069Z" />
<path d="M1389.18 100.151C1382.17 96.3428 1375.34 98.3203 1368.45 100.844C1365.31 101.992 1361.98 102.616 1358.3 103.595C1358.3 99.1816 1358.3 95.4314 1358.3 90.8362C1365.88 89.5889 1373.71 87.9057 1381.63 87.1719C1385.34 86.8284 1389.48 87.6903 1392.97 89.1017C1401.34 92.4785 1409.1 90.7027 1416.91 87.5584C1417.5 87.3194 1418.14 87.1845 1418.76 87.0253C1418.91 86.9863 1419.09 87.0425 1419.26 87.0548C1421.43 96.2119 1415.64 102.993 1404.9 102.841C1399.87 102.77 1394.85 101.001 1389.44 100.013C1389.05 100.025 1389.13 100.112 1389.18 100.151Z" />
<path d="M1475.28 105.681C1481.33 107.425 1487.04 108.898 1492.87 110.4C1492.87 114.079 1492.87 117.713 1492.87 121.55C1483.4 119.67 1474.03 117.807 1464.6 115.933C1466.5 104.298 1466.5 104.298 1475.28 105.681Z" />
<path d="M1385.98 114.293C1385.27 115.493 1384.49 116.944 1383.82 116.89C1376.96 116.33 1370.69 118.334 1364.42 120.744C1362.55 121.464 1360.29 121.19 1358.11 121.38C1358.11 117.892 1358.11 114.249 1358.11 110.012C1366.4 108.015 1374.76 106.002 1383.12 103.988C1384.29 108.058 1385.13 110.951 1385.98 114.293Z" />
<path d="M1405.58 120.852C1403.15 117.303 1401.11 113.884 1399.3 110.861C1405.26 109.385 1410.95 107.974 1417.15 106.438C1416.75 110.223 1416.32 114.204 1415.82 118.874C1412.72 119.536 1409.34 120.259 1405.58 120.852Z" />
<path d="M1436.06 106.979C1441.09 108.307 1445.71 109.616 1450.91 111.09C1449.41 113.62 1447.9 116.917 1445.71 119.664C1443.4 122.552 1435.27 120.414 1434.35 116.661C1433.51 113.258 1433.46 109.661 1432.99 105.586C1434.25 106.238 1434.95 106.599 1436.06 106.979Z" />
</g>
<defs>
<clipPath id="clip0_220_741">
<rect width="2500" height="226" />
</clipPath>
</defs>
</svg>
